<svg width="55" height="53" viewBox="0 0 55 53" fill="none" xmlns="http://www.w3.org/2000/svg">
<path d="M25.5938 1.19758C25.9533 0.464662 26.6937 0 27.503 0C28.3122 0 29.0538 0.464662 29.4121 1.19758L36.2597 15.2033C36.5694 15.8368 37.1698 16.2763 37.864 16.3781L53.1776 18.6236C53.9809 18.741 54.6454 19.3086 54.8958 20.0858C55.1461 20.8631 54.9373 21.7181 54.3571 22.2882L43.277 33.191C42.7751 33.6844 42.5461 34.3957 42.6636 35.0927L45.2787 50.4876C45.414 51.2948 45.0877 52.1092 44.4304 52.5906C43.7742 53.0696 42.9068 53.1331 42.1878 52.7547L28.4902 45.4853C27.8708 45.156 27.1292 45.156 26.5086 45.4853L12.811 52.7535C12.0944 53.1331 11.2246 53.0708 10.5685 52.5906C9.91229 52.1104 9.5848 51.2948 9.72126 50.4876L12.3364 35.0927C12.4551 34.3957 12.2249 33.6844 11.723 33.191L0.642925 22.2882C0.0627 21.7169 -0.146134 20.8631 0.104229 20.0858C0.354592 19.3086 1.02025 18.741 1.82355 18.6236L17.1396 16.3781C17.8325 16.2763 18.4329 15.8368 18.7426 15.2021L25.5938 1.19758Z" fill="white"/>
</svg>
