<svg width="221" height="228" viewBox="0 0 221 228" fill="none" xmlns="http://www.w3.org/2000/svg">
<path d="M208.771 61.8219C201.033 46.3382 189.747 32.6656 176.137 22.2817C174.139 20.7583 171.324 21.1937 169.847 23.2538C168.369 25.3138 168.792 28.2191 170.789 29.7433C183.297 39.2857 193.666 51.8487 200.777 66.075C208.228 80.9818 212.005 97.1058 212.005 114.001C212.005 171.744 166.47 218.721 110.5 218.721C54.5301 218.721 8.99465 171.744 8.99465 114C8.99465 56.2565 54.5301 9.27955 110.5 9.27955C112.983 9.27955 114.997 7.2017 114.997 4.63977C114.997 2.07785 112.983 0 110.5 0C49.5703 0 0 51.1404 0 114C0 176.86 49.5703 228 110.5 228C171.43 228 221 176.86 221 114C221 95.8709 216.772 77.8283 208.771 61.8219Z" fill="white"/>
<path d="M82.2256 61.0664C80.8194 61.8915 79.9507 63.4319 79.9507 65.0999V166.923C79.9507 169.485 81.9647 171.563 84.448 171.563C86.9313 171.563 88.9453 169.485 88.9453 166.923V73.262L155.53 114.156L106.567 146.702C104.479 148.09 103.876 150.961 105.222 153.115C106.568 155.269 109.35 155.891 111.439 154.502L166.505 117.9C167.813 117.03 168.593 115.523 168.565 113.917C168.537 112.311 167.707 110.834 166.369 110.012L86.7484 61.1128C85.3572 60.2598 83.6317 60.2413 82.2256 61.0664Z" fill="white"/>
</svg>
